<svg xmlns="http://www.w3.org/2000/svg">
  <symbol id="basketball" width="28" height="28" viewBox="0 0 28 28">
    <title>Basketball Icon</title>
    <path id="Forma_1" data-name="Forma 1" d="M480.889,6333.48s6.465,4.75,4.333,14.45S478,6358.52,478,6358.52" transform="translate(-463.95 -6332.2)"/>
    <path id="Forma_2" data-name="Forma 2" d="M470.3,6335.89a21.072,21.072,0,0,1,7.222,4.33c2.889,2.89,5.434,4.47,7.7,4.34s3.508-3.31,4.333-3.38" transform="translate(-463.95 -6332.2)"/>
    <path id="Forma_3" data-name="Forma 3" d="M468.852,6354.67s5.09,0.55,7.7-.97a14.778,14.778,0,0,1,7.223-1.92,4.127,4.127,0,0,1,3.852,1.92" transform="translate(-463.95 -6332.2)"/>
    <path id="Forma_4" data-name="Forma 4" d="M465.481,6344.07s8.186,4.2,11.556,4.34a55.858,55.858,0,0,0,13.481-.48" transform="translate(-463.95 -6332.2)"/>
    <circle id="Elipse_1" data-name="Elipse 1" class="cls-2" cx="14.05" cy="13.8" r="13"/>
  </symbol>

  <symbol id="jersey" width="22" height="24" viewBox="0 0 22 24">
    <title>Jersey Icon</title>
    <path id="Jersey" d="M486,6403.8a31.244,31.244,0,0,0-.184,15.2H468.184a31.244,31.244,0,0,0-.184-15.2,5.023,5.023,0,0,0,.367-6.24l3.857-.56a19.782,19.782,0,0,1,2.113,2.7c1.469,2.61,2.663,2.71,2.663,2.71s1.194-.1,2.663-2.71a19.754,19.754,0,0,1,2.112-2.7l3.858,0.56A5.023,5.023,0,0,0,486,6403.8Z" transform="translate(-466.088 -6395.99)"/>
  </symbol>

  <symbol id="bag" width="22" height="24" viewBox="0 0 22 24">
    <title>Bag Icon</title>
    <path id="bag-path" d="M1195.25,961.988h13.5a2.238,2.238,0,0,1,2.25,2.223l1,17.565a2.239,2.239,0,0,1-2.25,2.223h-15.5a2.239,2.239,0,0,1-2.25-2.223l1-17.565A2.238,2.238,0,0,1,1195.25,961.988Z" transform="translate(-1191.2 -961.2)"/>
  </symbol>

  <symbol id="bag-handle" width="12" height="11" viewBox="0 0 12 11">
    <title>Bag Handle Icon</title>
    <path id="bag-handle-path" d="M1197.01,966v-4.7c0-2.377,2.24-4.3,4.99-4.3s4.99,1.927,4.99,4.3V966" transform="translate(-1196.2 -956.2)"/>
  </symbol>

  <symbol id="points-per-game" width="37" height="32" viewBox="0 0 37 32">
    <title>Point Per Game</title>
    <g id="Basketball_Icon" data-name="Basketball Icon">
      <path id="Forma_1" data-name="Forma 1" class="cls-1" d="M656.889,1848.48s6.465,4.75,4.333,14.44-7.222,10.6-7.222,10.6" transform="translate(-639.95 -1843)"/>
      <path id="Forma_2" data-name="Forma 2" class="cls-1" d="M646.3,1850.89a21.072,21.072,0,0,1,7.222,4.33c2.889,2.89,5.434,4.47,7.7,4.33s3.508-3.3,4.333-3.37" transform="translate(-639.95 -1843)"/>
      <path id="Forma_3" data-name="Forma 3" class="cls-1" d="M644.852,1869.66s5.09,0.56,7.7-.96a14.775,14.775,0,0,1,7.223-1.92,4.124,4.124,0,0,1,3.851,1.92" transform="translate(-639.95 -1843)"/>
      <path id="Forma_4" data-name="Forma 4" class="cls-1" d="M641.481,1859.07s8.186,4.2,11.556,4.34a55.445,55.445,0,0,0,13.481-.49" transform="translate(-639.95 -1843)"/>
      <circle id="Elipse_1" data-name="Elipse 1" class="cls-2" cx="14.05" cy="18" r="13"/>
    </g>
    <path id="Star" fill="var(--headings-color)" stroke="none" style="opacity:0.6;" class="cls-3" d="M675.05,1853a0.625,0.625,0,0,1-.354-0.12l-2.673-1.83h-0.057l-2.666,1.83a0.533,0.533,0,0,1-.738-0.07,0.572,0.572,0,0,1-.072-0.52l0.806-2.85a0.191,0.191,0,0,0-.032-0.12l-2.077-2.11a0.571,0.571,0,0,1-.158-0.6,0.559,0.559,0,0,1,.51-0.36l2.75-.26a0.21,0.21,0,0,0,.1-0.07l1.1-2.55a0.532,0.532,0,0,1,1.016.01l1.105,2.54a0.2,0.2,0,0,0,.1.07l2.747,0.26a0.556,0.556,0,0,1,.51.36,0.573,0.573,0,0,1-.159.6l-2.077,2.11a0.2,0.2,0,0,0-.032.12l0.807,2.85a0.572,0.572,0,0,1-.072.52A0.478,0.478,0,0,1,675.05,1853ZM672,1850.22a0.92,0.92,0,0,1,.5.14l1.983,1.36-0.58-2.05a1,1,0,0,1,.24-0.93l1.684-1.72-2.191-.2a1,1,0,0,1-.784-0.57L672,1844.3l-0.848,1.95a1,1,0,0,1-.783.57l-2.191.2,1.685,1.72a1,1,0,0,1,.238.93l-0.579,2.05,1.983-1.36A0.91,0.91,0,0,1,672,1850.22Z" transform="translate(-639.95 -1843)"/>
  </symbol>

  <symbol id="assists-per-game" width="50" height="28" viewBox="0 0 50 28">
    <title>Assists Per Game</title>
    <g id="Basketball_Icon" data-name="Basketball Icon">
      <path id="Forma_1" data-name="Forma 1" class="cls-1" d="M846.889,1848.48s6.465,4.75,4.333,14.44-7.222,10.6-7.222,10.6" transform="translate(-808 -1847.2)"/>
      <path id="Forma_2" data-name="Forma 2" class="cls-1" d="M836.3,1850.89a21.072,21.072,0,0,1,7.222,4.33c2.889,2.89,5.434,4.47,7.7,4.33s3.508-3.3,4.333-3.37" transform="translate(-808 -1847.2)"/>
      <path id="Forma_3" data-name="Forma 3" class="cls-1" d="M834.852,1869.66s5.09,0.56,7.7-.96a14.775,14.775,0,0,1,7.223-1.92,4.124,4.124,0,0,1,3.851,1.92" transform="translate(-808 -1847.2)"/>
      <path id="Forma_4" data-name="Forma 4" class="cls-1" d="M831.481,1859.07s8.186,4.2,11.556,4.34a55.445,55.445,0,0,0,13.481-.49" transform="translate(-808 -1847.2)"/>
      <circle id="Elipse_1" data-name="Elipse 1" class="cls-2" cx="36" cy="13.8" r="13"/>
    </g>
    <path id="assists-line" fill="var(--headings-color)" stroke="none" style="opacity:0.4;" class="cls-3" d="M814,1854h12a1,1,0,0,1,0,2H814A1,1,0,0,1,814,1854Zm-5,6h16a1,1,0,0,1,0,2H809A1,1,0,0,1,809,1860Zm5,6h12a1,1,0,0,1,0,2H814A1,1,0,0,1,814,1866Z" transform="translate(-808 -1847.2)"/>
  </symbol>

  <symbol id="rebounds-per-game" width="41" height="33" viewBox="0 0 41 33">
    <title>Rebounds Per Game</title>
    <g id="Basketball_Icon" data-name="Basketball Icon">
      <path id="Forma_1" data-name="Forma 1" class="cls-1" d="M656.889,2076.48s6.465,4.75,4.333,14.44-7.222,10.6-7.222,10.6" transform="translate(-639.95 -2069.56)"/>
      <path id="Forma_2" data-name="Forma 2" class="cls-1" d="M646.3,2078.89a21.072,21.072,0,0,1,7.222,4.33c2.889,2.89,5.434,4.47,7.7,4.33s3.508-3.3,4.333-3.37" transform="translate(-639.95 -2069.56)"/>
      <path id="Forma_3" data-name="Forma 3" class="cls-1" d="M644.852,2097.66s5.09,0.56,7.7-.96a14.775,14.775,0,0,1,7.223-1.92,4.124,4.124,0,0,1,3.851,1.92" transform="translate(-639.95 -2069.56)"/>
      <path id="Forma_4" data-name="Forma 4" class="cls-1" d="M641.481,2087.07s8.186,4.2,11.556,4.34a55.445,55.445,0,0,0,13.481-.49" transform="translate(-639.95 -2069.56)"/>
      <circle id="Elipse_1" data-name="Elipse 1" class="cls-2" cx="14.05" cy="19.44" r="13"/>
    </g>
    <path id="rebounds-lines" fill="var(--headings-color)" stroke="none" style="opacity:0.4;" class="cls-3" d="M666.237,2073.69l6.928-4a1,1,0,1,1,1,1.73l-6.928,4A1,1,0,0,1,666.237,2073.69Zm3.866,4.69,8.66-5a1,1,0,0,1,1,1.74l-8.66,5A1,1,0,0,1,670.1,2078.38Zm2.134,5.7,6.928-4a1,1,0,0,1,1,1.73l-6.928,4A1,1,0,1,1,672.237,2084.08Z" transform="translate(-639.95 -2069.56)"/>
  </symbol>

	<symbol id="map-pin-o" width="14" height="19" viewBox="0 0 14 19">
    <title>Map Pin</title>
    <g fill-rule="nonzero">
			<path d="M7,0 C3.13599435,0 0,3.07567395 0,6.875 C0,8.07436024 0.637322673,9.62758212 1.77661069,11.4842867 C2.23185961,12.2262086 2.760005,13.0028871 3.34677581,13.8031523 C4.06511795,14.7828604 4.83381664,15.7479912 5.60247791,16.6575737 L5.99094243,17.1123384 L6.54694356,17.7445681 L7,18.2407458 L7.577454,17.6052941 L8.00905757,17.1123384 C8.13324352,16.968568 8.2629952,16.8167638 8.39752209,16.6575737 C9.16618336,15.7479912 9.93488205,14.7828604 10.6532242,13.8031523 C11.239995,13.0028871 11.7681404,12.2262086 12.2233893,11.4842867 C13.3626773,9.62758212 14,8.07436024 14,6.875 C14,3.07567395 10.8640056,0 7,0 Z M7,1 C10.3160214,1 13,3.63235262 13,6.875 C13,7.8386343 12.420418,9.25113609 11.3710556,10.9612883 C10.931265,11.6780177 10.4182594,12.432432 9.84677581,13.2118477 C9.14324295,14.1713583 8.38850414,15.1189619 7.63372791,16.0121138 L7.25253911,16.4583659 L7,16.748 L6.56072484,16.2409753 C6.49716019,16.1665725 6.43230943,16.090258 6.36627209,16.0121138 C5.61149586,15.1189619 4.85675705,14.1713583 4.15322419,13.2118477 C3.58174056,12.432432 3.06873495,11.6780177 2.62894435,10.9612883 C1.57958198,9.25113609 1,7.8386343 1,6.875 C1,3.63235262 3.68397856,1 7,1 Z"></path>
			<path d="M7,4 C5.34285763,4 4,5.34285763 4,7 C4,8.65645686 5.343172,10 7,10 C8.656828,10 10,8.65645686 10,7 C10,5.34285763 8.65714237,4 7,4 Z M7,5 C8.10485763,5 9,5.89514237 9,7 C9,8.10423394 8.10448139,9 7,9 C5.89551861,9 5,8.10423394 5,7 C5,5.89514237 5.89514237,5 7,5 Z"></path>
		</g>
  </symbol>

	<symbol id="trophy-o" width="17" height="15" viewBox="0 0 17 15">
    <title>Trophy</title>
    <g fill-rule="nonzero">
			<path d="M13,-0.001 L3,-0.001 L3,6.499 C3,8.99875834 5.2507037,10.999 8,10.999 C10.7492963,10.999 13,8.99875834 13,6.499 L13,-0.001 Z M4,0.998 L12,0.998 L12,6.499 C12,8.4184742 10.2215673,9.999 8,9.999 L7.7864378,9.99410767 C5.66554575,9.89667789 4,8.35655568 4,6.499 L4,0.998 Z" id="Path"></path>
			<path d="M15.950622,0.999 L11,0.999 L11,7.999 L11.5,7.999 C13.773437,7.999 15.1327906,6.70694105 15.7157005,4.63437279 C15.9999511,3.62370396 16.0666304,2.57419288 16.0132996,1.65917193 L15.9973092,1.44719696 L15.950622,0.999 Z M12,1.999 L15.026,1.999 L15.0291251,2.34951461 C15.0205415,3.00050262 14.9399887,3.69895455 14.7530495,4.36362721 L14.6912688,4.56954158 C14.2605625,5.91709176 13.450953,6.75809601 12.1295999,6.95456224 L12,6.97 L12,1.999 Z" id="Path"></path>
			<path d="M5,0.999 L0.0800043104,0.999 L0.0336482551,1.44760699 C0.0293875412,1.4888397 0.0235139658,1.56059718 0.0178049066,1.65934202 C-0.0350764057,2.57398601 0.0310766846,3.62312717 0.313028541,4.63340555 C0.891476507,6.70607667 2.24118072,7.999 4.5,7.999 L5,7.999 L5,0.999 Z M4,1.999 L4,6.97 L3.87635466,6.95459958 C2.50196399,6.74847689 1.68582168,5.83225722 1.27622146,4.36459445 L1.1920674,4.02964936 C1.06595245,3.4679721 1.00922818,2.89225236 1.00211905,2.34951158 L1.004,1.999 L4,1.999 Z"></path>
			<polygon points="9 9.999 7 9.999 7 13.999 9 13.999"></polygon>
			<polygon points="11 12.999 5 12.999 5 15 11 15"></polygon>
		</g>
  </symbol>

	<symbol id="calendar-o" width="16" height="16" viewBox="0 0 16 16">
    <title>Calendar</title>
    <g id="calendar-o">
			<path d="M13.357,1.999 L2.643,1.999 C1.17161937,1.999 0,3.29186045 0,4.863 L0,13.136 C0,14.7071396 1.17161937,16 2.643,16 L13.357,16 C14.8283806,16 16,14.7071396 16,13.136 L16,4.863 C16,3.29186045 14.8283806,1.999 13.357,1.999 Z M2.643,2.999 L13.357,2.999 C14.2529296,2.999 15,3.82337843 15,4.863 L15,13.136 C15,14.1756216 14.2529296,15 13.357,15 L2.643,15 C1.74707038,15 1,14.1756216 1,13.136 L1,4.863 C1,3.82337843 1.74707038,2.999 2.643,2.999 Z" fill-rule="nonzero"></path>
			<rect x="3" y="6" width="2" height="2"></rect>
			<rect x="3" y="11" width="2" height="2"></rect>
			<rect x="7" y="6" width="2" height="2"></rect>
			<rect x="7" y="11" width="2" height="2"></rect>
			<rect x="11" y="6" width="2" height="2"></rect>
			<rect x="11" y="11" width="2" height="2"></rect>
			<path d="M4,0 C3.44766643,0 3,0.447048106 3,1 L3,3 C3,3.55214237 3.44785763,4 4,4 C4.55214237,4 5,3.55214237 5,3 L5,1 C5,0.447048106 4.55233357,0 4,0 Z" fill-rule="nonzero"></path>
			<path d="M12,0 C11.4476664,0 11,0.447048106 11,1 L11,3 C11,3.55214237 11.4478576,4 12,4 C12.5521424,4 13,3.55214237 13,3 L13,1 C13,0.447048106 12.5523336,0 12,0 Z" fill-rule="nonzero"></path>
		</g>
  </symbol>

	<symbol id="whistle-o" width="17" height="17" viewBox="0 0 17 17">
    <title>Whistle</title>
    <g id="whistle-o" fill-rule="nonzero">
			<path d="M7.357,2.704 L7.23544621,2.23602995 L0.210259241,14.3735296 L0.150596946,14.5371712 L0.142305595,14.6003594 C0.11135891,14.924542 0.194186168,15.3017622 0.477427325,15.6551474 C0.729302136,15.9693984 1.10910068,16.2112856 1.62136046,16.3649235 L2.58479361,16.6485092 L3.52772701,16.9130749 L4.02256156,17.0443041 L8.928,12.496 L9.05192834,12.547155 C11.70907,13.5791736 14.7644396,12.5558035 16.216705,10.0475321 C17.8313625,7.25688771 16.8730042,3.68866918 14.0765691,2.07773882 C11.9231268,0.837302887 9.27259316,1.11453834 7.42778896,2.6443974 L7.357,2.704 Z M13.5774175,2.94425349 C15.8948614,4.27925342 16.688715,7.23497823 15.3512211,9.54659556 C14.0822187,11.7383451 11.3317752,12.561332 9.04889813,11.4559773 L8.74156188,11.3071671 L3.747,15.936 L2.86103141,15.6874194 C2.56047078,15.6009255 2.24220241,15.5073804 1.90898351,15.4071798 C1.58268615,15.309316 1.37661648,15.1780738 1.25772169,15.029735 L1.20556755,14.9546676 C1.17633349,14.9052989 1.15774962,14.8576276 1.14729277,14.8137241 L1.139,14.763 L7.153,4.372 L7.47417259,3.99775961 C8.9310071,2.29234883 11.3767902,1.80653052 13.3726288,2.83270017 L13.5774175,2.94425349 Z"></path>
			<path d="M11,4 C9.3430432,4 8,5.34267209 8,6.999 C8,8.65627135 9.34298646,10 11,10 C12.6570135,10 14,8.65627135 14,6.999 C14,5.34267209 12.6569568,4 11,4 Z M11,5 C12.1047339,5 13,5.89501871 13,6.999 C13,8.10411024 12.1046051,9 11,9 C9.89539493,9 9,8.10411024 9,6.999 C9,5.89501871 9.89526609,5 11,5 Z"></path>
			<path d="M7.5,-0.001 C6.11916427,-0.001 5,1.11855085 5,2.499 C5,3.88025595 6.11897101,5 7.5,5 C8.88102899,5 10,3.88025595 10,2.499 C10,1.11855085 8.88083573,-0.001 7.5,-0.001 Z M7.5,0.999 C8.32847366,0.999 9,1.6707583 9,2.499 C9,3.32812574 8.32858958,4 7.5,4 C6.67141042,4 6,3.32812574 6,2.499 C6,1.6707583 6.67152634,0.999 7.5,0.999 Z"></path>
		</g>
  </symbol>

	<symbol id="person-o" width="15" height="20" viewBox="0 0 15 20">
		<title>Person</title>
		<g id="person-o" fill-rule="nonzero">
			<path d="M7.5,0 C4.46252769,0 2,2.46218751 2,5.5 C2,8.53714237 4.46285763,11 7.5,11 C10.5371424,11 13,8.53714237 13,5.5 C13,2.46218751 10.5374723,0 7.5,0 Z M7.5,1 C9.98521849,1 12,3.01450319 12,5.5 C12,7.98485763 9.98485763,10 7.5,10 C5.01514237,10 3,7.98485763 3,5.5 C3,3.01450319 5.01478151,1 7.5,1 Z"></path>
			<path d="M14.1937129,10 L0.806287057,10 L4.13962039,20 L10.8603796,20 L14.1937129,10 Z M12.805,11 L10.139,19 L4.86,19 L2.194,11 L12.805,11 Z"></path>
			<path d="M15,10 L11,10 L11,17 L15,17 L15,10 Z M14,11 L14,16 L12,16 L12,11 L14,11 Z"></path>
			<path d="M4,10 L0,10 L0,17 L4,17 L4,10 Z M3,11 L3,16 L1,16 L1,11 L3,11 Z"></path>
		</g>
  </symbol>



</svg>
