<svg xmlns="http://www.w3.org/2000/svg">
	<symbol id="trophy" width="18" height="16" viewBox="0 0 18 16">
		<title>Trophy Icon</title>
		<path d="M18,2.995L17.995,2H14V0H4v2H0.005L0,2.995c-0.001,0.154,0.005,3.801,1.958,5.764 c0.646,0.649,1.424,1.036,2.311,1.175C4.884,11.903,6.461,12.7,8,12.925V14H6v2h6v-2h-2v-1.075c1.539-0.225,3.116-1.021,3.731-2.991 c0.886-0.139,1.664-0.525,2.311-1.175C17.995,6.796,18.001,3.149,18,2.995z M2.071,4H4v3.793C3.773,7.687,3.567,7.54,3.378,7.351 C2.562,6.533,2.205,5.065,2.071,4z M9,10.999c-2.659,0-3-1.603-3-2.999V2l0,0h6l0,0v5.999C12,9.396,11.659,10.999,9,10.999z M14.622,7.351C14.433,7.54,14.227,7.687,14,7.793V4h1.929C15.795,5.065,15.438,6.533,14.622,7.351z"/>
	</symbol>
</svg>
